<svg width="512" height="512" viewBox="0 0 512 512" fill="none" xmlns="http://www.w3.org/2000/svg">
<path fill-rule="evenodd" clip-rule="evenodd" d="M218.607 68.6465L255.372 105.411L292.138 68.6465H272.33V42.6664H238.415V68.6465H218.607ZM218.607 443.354L255.372 406.589L292.138 443.354H272.33V469.334H238.415V443.354H218.607ZM149.172 150.428L97.1788 150.428L111.185 136.422L92.8142 118.051L116.796 94.0691L135.167 112.44L149.173 98.4338L149.172 150.428ZM97.1788 362.06L149.172 362.06L149.173 414.054L135.167 400.048L116.796 418.419L92.8142 394.437L111.185 376.066L97.1788 362.06ZM363.315 150.428L415.309 150.428L401.303 136.422L419.673 118.051L395.691 94.0691L377.321 112.44L363.315 98.4338L363.315 150.428ZM415.309 362.06L363.315 362.06L363.315 414.054L377.321 400.048L395.691 418.419L419.673 394.437L401.303 376.066L415.309 362.06ZM105.412 256.627L68.6468 219.862V239.67H42.6667V273.585H68.6468V293.392L105.412 256.627ZM443.353 293.393L406.588 256.628L443.353 219.862V239.67H469.333V273.585H443.353V293.393Z" fill="#4C12A1"/>
<path d="M326 178H186C178.044 178 170.413 181.161 164.787 186.787C159.161 192.413 156 200.044 156 208V288C156 295.956 159.161 303.587 164.787 309.213C170.413 314.839 178.044 318 186 318H246V338H206C203.348 338 200.804 339.054 198.929 340.929C197.054 342.804 196 345.348 196 348C196 350.652 197.054 353.196 198.929 355.071C200.804 356.946 203.348 358 206 358H306C308.652 358 311.196 356.946 313.071 355.071C314.946 353.196 316 350.652 316 348C316 345.348 314.946 342.804 313.071 340.929C311.196 339.054 308.652 338 306 338H266V318H326C333.956 318 341.587 314.839 347.213 309.213C352.839 303.587 356 295.956 356 288V208C356 200.044 352.839 192.413 347.213 186.787C341.587 181.161 333.956 178 326 178ZM336 288C336 290.652 334.946 293.196 333.071 295.071C331.196 296.946 328.652 298 326 298H186C183.348 298 180.804 296.946 178.929 295.071C177.054 293.196 176 290.652 176 288V208C176 205.348 177.054 202.804 178.929 200.929C180.804 199.054 183.348 198 186 198H326C328.652 198 331.196 199.054 333.071 200.929C334.946 202.804 336 205.348 336 208V288Z" fill="#4C12A1"/>
<path fill-rule="evenodd" clip-rule="evenodd" d="M256 280.25C273.259 280.25 287.25 266.259 287.25 249C287.25 231.741 273.259 217.75 256 217.75C238.741 217.75 224.75 231.741 224.75 249C224.75 266.259 238.741 280.25 256 280.25Z" stroke="#4C12A1" stroke-width="8"/>
<path fill-rule="evenodd" clip-rule="evenodd" d="M256 277.125C256 277.125 268.5 266.898 268.5 249C268.5 231.102 256 220.875 256 220.875C256 220.875 243.5 231.102 243.5 249C243.5 266.898 256 277.125 256 277.125Z" stroke="#4C12A1" stroke-width="8"/>
<path d="M226.313 239.625H285.688" stroke="#4C12A1" stroke-width="8" stroke-linecap="round"/>
<path d="M226.313 258.375H285.688" stroke="#4C12A1" stroke-width="8" stroke-linecap="round"/>
</svg>
