<?xml version="1.0" encoding="utf-8"?>
<!-- Generator: Adobe Illustrator 25.0.1, SVG Export Plug-In . SVG Version: 6.00 Build 0)  -->
<svg version="1.1" id="Layer_1" xmlns="http://www.w3.org/2000/svg" xmlns:xlink="http://www.w3.org/1999/xlink" x="0px" y="0px"
	 viewBox="0 0 512 512" style="enable-background:new 0 0 512 512;" xml:space="preserve">
<style type="text/css">
	.st0{fill:#FFFFFF;}
	.st1{fill:#FFFFFF;}
</style>
<path class="st0" d="M56,213.5L56,213.5c-11.6,0-21-9.5-21-21v0c0-11.6,9.5-21,21-21h0c11.6,0,21,9.5,21,21v0
	C77.1,204,67.6,213.5,56,213.5z"/>
<path class="st0" d="M384,285L384,285c-11.6,0-21-9.5-21-21v0c0-11.6,9.5-21,21-21h0c11.6,0,21,9.5,21,21v0
	C405,275.6,395.6,285,384,285z"/>
<path class="st0" d="M264,373L264,373c-11.6,0-21-9.5-21-21v0c0-11.6,9.5-21,21-21h0c11.6,0,21,9.5,21,21v0
	C285,363.6,275.6,373,264,373z"/>
<path class="st0" d="M208,189L208,189c-11.6,0-21-9.5-21-21v0c0-11.6,9.5-21,21-21h0c11.6,0,21,9.5,21,21v0
	C229,179.6,219.6,189,208,189z"/>
<path class="st0" d="M440,453L440,453c-11.6,0-21-9.5-21-21v0c0-11.6,9.5-21,21-21h0c11.6,0,21,9.5,21,21v0
	C461,443.6,451.6,453,440,453z"/>
<path class="st0" d="M351.3,101L351.3,101c-11.6,0-21-9.5-21-21v0c0-11.6,9.5-21,21-21h0c11.6,0,21,9.5,21,21v0
	C372.3,91.6,362.8,101,351.3,101z"/>
<path class="st0" d="M112,378.1L112,378.1c-11.6,0-21-9.5-21-21v0c0-11.6,9.5-21,21-21h0c11.6,0,21,9.5,21,21v0
	C133,368.6,123.6,378.1,112,378.1z"/>
<path class="st0" d="M164.8,101L164.8,101c-11.6,0-21-9.5-21-21v0c0-11.6,9.5-21,21-21h0c11.6,0,21,9.5,21,21v0
	C185.8,91.6,176.3,101,164.8,101z"/>
<g id="Outline">
	<path class="st1" d="M474,321.6v-99.2c16.8-5.5,25.9-23.6,20.4-40.4c-5.5-16.8-23.6-25.9-40.4-20.4c-1.9,0.6-3.8,1.4-5.5,2.4
		l-68.3-68.9c8.3-15.6,2.5-35-13.1-43.3s-35-2.5-43.3,13.1c-0.9,1.6-1.6,3.3-2.2,5.1H198.4c-5.5-16.8-23.6-26-40.4-20.5
		s-26,23.6-20.5,40.4c0.5,1.5,1.1,3,1.8,4.4l-69.1,69.1c-15.8-7.9-35-1.5-42.9,14.3s-1.5,35,14.3,42.9c1.7,0.9,3.5,1.6,5.4,2.1v42.6
		c-17,5-26.7,22.7-21.7,39.7c5,17,22.7,26.7,39.7,21.7c2.7-0.8,5.3-1.9,7.7-3.4l11.9,12.3c-9.1,15.2-4.1,34.8,11.1,43.9
		s34.8,4.1,43.9-11.1c1.5-2.6,2.7-5.4,3.5-8.3l90.2,0.4c4.7,17,22.4,27,39.4,22.3c0.8-0.2,1.6-0.5,2.4-0.8l20.5,29.4
		c-11.3,13.6-9.5,33.7,4.1,45.1c13.6,11.3,33.7,9.5,45.1-4.1c2.9-3.5,5.1-7.6,6.3-12h58.3c4.7,17,22.3,27,39.4,22.3
		s27-22.3,22.3-39.4c-2.1-7.6-6.9-14.1-13.5-18.3l6.9-21.2c17.7-0.2,31.9-14.6,31.7-32.3C495.9,338,487,325.9,474,321.6z M320,400
		c-4,0-7.9,0.7-11.6,2.2L288.1,373c3.1-3.5,5.3-7.7,6.6-12.2l138.5,0.2c0.1,0.2,0.1,0.4,0.2,0.7l-89.8,48.9
		C337.6,403.8,329,400,320,400z M244.4,326.7l-63.1-49.9c0.5-1.2,1-2.4,1.3-3.7h58.7c2.9,9.7,10.3,17.5,19.9,20.9l-2.2,26.3
		C253.7,321.2,248.6,323.4,244.4,326.7L244.4,326.7z M112,320c-5.7,0-11.2,1.5-16.1,4.4l-12.1-12.5C86.6,307,88,301.5,88,296
		c0-1.2-0.1-2.4-0.2-3.6l37.5-10.8c2,3.1,4.6,5.8,7.6,8l-15,30.9C115.9,320.2,114,320,112,320z M76.6,216.5l46,35
		c-1.7,3.9-2.5,8.2-2.5,12.5c0,0.8,0,1.7,0.1,2.5L82,277.4c-4.6-6.4-11.4-10.9-19-12.6v-41.6C68,222.1,72.6,219.8,76.6,216.5z
		 M168,112c2,0,4-0.2,5.9-0.6l14.7,31.1c-6.6,5-11,12.5-12.2,20.7l-91.9,14.1c-0.6-1.2-1.3-2.4-2.1-3.5l67.5-67.5
		C155.2,110,161.5,112,168,112z M239.4,174.4h41.3c1.6,7.6,5.8,14.4,12,19.1l-16.1,38.9c-5.2-0.8-10.5-0.2-15.4,1.5l-28.8-45.2
		C235.9,184.6,238.3,179.7,239.4,174.4z M352,112c6.2,0,12.2-1.8,17.3-5.1l67.6,68.1c-0.9,1.4-1.7,2.9-2.3,4.4l-90.9-15.8
		c-1.1-8.2-5.4-15.7-11.9-20.8l14.1-31.5C347.9,111.8,349.9,112,352,112z M432.8,344.9l-137.6-0.2c-0.3-1.3-0.7-2.6-1.2-3.9
		l70.3-51.6c9.7,7.6,22.9,9,34,3.5l39.1,41.6C435.2,337.5,433.7,341.1,432.8,344.9z M303.3,257.2c-1.6-7.4-5.9-14-11.9-18.7
		l16.1-38.9c1.5,0.2,3.1,0.3,4.6,0.3c4.4,0,8.8-0.9,12.8-2.7l33.8,47.2c-2.9,3.7-4.9,8.1-5.9,12.7L303.3,257.2z M272,280
		c-8.8,0-16-7.2-16-16c0-8.8,7.2-16,16-16s16,7.2,16,16C288,272.8,280.8,280,272,280z M240.7,257.2h-57.5
		c-1.2-5.5-3.9-10.7-7.7-14.8l24.2-43.4c6.5,1.7,13.3,1.4,19.6-1l28.7,45C244.4,247,241.9,251.9,240.7,257.2z M132.3,238.8
		l-46.4-35.4c1.3-3.3,2-6.9,2.1-10.4l90.1-13.8c1.7,4.5,4.3,8.5,7.8,11.8l-23.7,42.6C151.9,230.2,140.7,232.2,132.3,238.8
		L132.3,238.8z M400,264c0,8.8-7.2,16-16,16s-16-7.2-16-16c0-8.8,7.2-16,16-16C392.8,248,400,255.2,400,264z M402.5,237.9
		c-9.1-6.5-20.9-7.7-31.2-3.3l-33.9-47.2c1.8-2.4,3.3-5,4.4-7.8l90.4,15.7c0.5,4.6,1.9,9,4.3,13L402.5,237.9z M328,168
		c0,8.8-7.2,16-16,16s-16-7.2-16-16s7.2-16,16-16C320.8,152,328,159.2,328,168z M208,184c-8.8,0-16-7.2-16-16s7.2-16,16-16
		s16,7.2,16,16C224,176.8,216.8,184,208,184z M136,264c0-8.8,7.2-16,16-16s16,7.2,16,16c0,8.8-7.2,16-16,16
		C143.2,280,136,272.8,136,264z M277.1,295.6c12.1-2,22-10.7,25.5-22.4h50.7c0.3,1.1,0.7,2.2,1.2,3.3l-69.7,51.2
		c-2.9-2.5-6.3-4.5-9.9-5.8L277.1,295.6z M449.3,323.6l-39-41.4c6.5-9.5,7.5-21.7,2.5-32.1l34.9-30.5c3.2,1.9,6.6,3.2,10.2,3.9v97.1
		C455,321.1,452,322.2,449.3,323.6L449.3,323.6z M480,192c0,8.8-7.2,16-16,16s-16-7.2-16-16s7.2-16,16-16
		C472.8,176,480,183.2,480,192z M352,64c8.8,0,16,7.2,16,16s-7.2,16-16,16s-16-7.2-16-16C336,71.2,343.2,64,352,64z M199.4,86h121.1
		c1.4,7.2,5.2,13.7,10.8,18.5l-14.3,31.9c-15.7-2.6-30.9,6.8-35.7,22h-42.9c-4.7-15-19.6-24.4-35.2-22.1l-14.9-31.7
		C194.1,99.9,198,93.3,199.4,86z M168,64c8.8,0,16,7.2,16,16s-7.2,16-16,16s-16-7.2-16-16C152,71.2,159.2,64,168,64z M40,192
		c0-8.8,7.2-16,16-16s16,7.2,16,16s-7.2,16-16,16C47.2,208,40,200.8,40,192z M56,312c-8.8,0-16-7.2-16-16s7.2-16,16-16s16,7.2,16,16
		C72,304.8,64.8,312,56,312z M112,368c-8.8,0-16-7.2-16-16s7.2-16,16-16s16,7.2,16,16C128,360.8,120.8,368,112,368z M132.4,327.3
		l15.4-31.6c1.4,0.2,2.8,0.3,4.3,0.3c7,0,13.8-2.3,19.4-6.6l63.2,50c-0.7,1.7-1.3,3.4-1.7,5.2l-89.9-0.4
		C141.3,337.6,137.6,331.7,132.4,327.3z M248,352c0-8.8,7.2-16,16-16c8.8,0,16,7.2,16,16s-7.2,16-16,16C255.2,368,248,360.8,248,352
		z M320,448c-8.8,0-16-7.2-16-16s7.2-16,16-16s16,7.2,16,16C336,440.8,328.8,448,320,448z M440,448c-8.8,0-16-7.2-16-16
		s7.2-16,16-16s16,7.2,16,16C456,440.8,448.8,448,440,448z M440,400c-14.8,0-27.7,10.2-31.1,24.6h-57.6l90.7-49.4
		c2,1.9,4.3,3.6,6.7,4.9l-6.5,20C441.5,400,440.7,400,440,400z M464,368c-8.8,0-16-7.2-16-16s7.2-16,16-16s16,7.2,16,16
		C480,360.8,472.8,368,464,368z"/>
</g>
</svg>
