<?xml version="1.0" encoding="utf-8"?>
<!-- Generator: Adobe Illustrator 25.0.1, SVG Export Plug-In . SVG Version: 6.00 Build 0)  -->
<svg version="1.1" id="Capa_1" xmlns="http://www.w3.org/2000/svg" xmlns:xlink="http://www.w3.org/1999/xlink" x="0px" y="0px"
	 viewBox="0 0 512 512" style="enable-background:new 0 0 512 512;" xml:space="preserve">
<style type="text/css">
	.st0{fill:#B43232;}
</style>
<g>
	<g>
		<rect x="27.7" y="181" class="st0" width="58.8" height="30"/>
	</g>
</g>
<g>
	<g>
		<rect x="27.7" y="301" class="st0" width="58.8" height="30"/>
	</g>
</g>
<g>
	<g>
		<rect y="241" class="st0" width="86.5" height="30"/>
	</g>
</g>
<g>
	<g>
		<path class="st0" d="M314.2,58.2c-109,0-197.8,88.7-197.8,197.8s88.7,197.8,197.8,197.8S512,365,512,256S423.3,58.2,314.2,58.2z
			 M314.2,423.8c-92.5,0-167.8-75.3-167.8-167.8S221.7,88.2,314.2,88.2C406.7,88.2,482,163.5,482,256S406.7,423.8,314.2,423.8z"/>
	</g>
</g>
<g>
	<g>
		<polygon class="st0" points="323.9,263.5 323.9,166.6 293.9,166.6 293.9,279.3 371.2,332 388.1,307.2 		"/>
	</g>
</g>
</svg>
