<?xml version="1.0" encoding="utf-8"?>
<!-- Generator: Adobe Illustrator 25.0.1, SVG Export Plug-In . SVG Version: 6.00 Build 0)  -->
<svg version="1.1" id="Layer_1" xmlns="http://www.w3.org/2000/svg" xmlns:xlink="http://www.w3.org/1999/xlink" x="0px" y="0px"
	 viewBox="0 0 512 512" style="enable-background:new 0 0 512 512;" xml:space="preserve">
<style type="text/css">
	.st0{fill:#4C12A1;}
</style>
<path class="st0" d="M473.5,481.2h-12.9V150.1c0-8.5-6.9-15.4-15.4-15.4h-79.7c-8.5,0-15.4,6.9-15.4,15.4v331.1h-37.9V265.4
	c0-8.5-6.9-15.4-15.4-15.4h-79.7c-8.5,0-15.4,6.9-15.4,15.4v215.9h-37.9V237.1c0-8.5-6.9-15.4-15.4-15.4H68.7
	c-8.5,0-15.4,6.9-15.4,15.4v244.1H40.4c-8.5,0-15.4,6.9-15.4,15.4c0,8.5,6.9,15.4,15.4,15.4h433.1c8.5,0,15.4-6.9,15.4-15.4
	C488.8,488.1,481.9,481.2,473.5,481.2z M380.8,165.5h48.9v315.7h-48.9V165.5z M232.5,280.7h48.9v200.5h-48.9V280.7z M84.1,252.5H133
	v228.8H84.1V252.5z"/>
<path class="st0" d="M132.4,176.3c0.5,0,0.9,0,1.4-0.1c1.4-0.1,34.6-3.2,81.7-19.9c43.3-15.3,107.1-45.6,165.9-103
	c0.3-0.3,0.6-0.6,0.8-0.9v23.7c0,8.5,6.9,15.4,15.4,15.4s15.4-6.9,15.4-15.4V15.4C412.9,6.9,406,0,397.5,0h-60.8
	c-8.5,0-15.4,6.9-15.4,15.4c0,8.5,6.9,15.4,15.4,15.4h23.7c-0.2,0.2-0.4,0.4-0.6,0.6c-15.8,15.5-32.1,28.8-48.1,40.3
	c-39.1,28-77.1,45.2-105.5,55.3c-5.9,2.1-11.6,4-17,5.7c-34.6,10.7-57.9,12.9-58.2,12.9c-8.5,0.8-14.7,8.2-14,16.7
	C117.8,170.2,124.5,176.3,132.4,176.3z"/>
</svg>
