<?xml version="1.0" encoding="utf-8"?>
<!-- Generator: Adobe Illustrator 25.0.1, SVG Export Plug-In . SVG Version: 6.00 Build 0)  -->
<svg version="1.1" id="Capa_1" xmlns="http://www.w3.org/2000/svg" xmlns:xlink="http://www.w3.org/1999/xlink" x="0px" y="0px"
	 viewBox="0 0 467.5 467.5" style="enable-background:new 0 0 467.5 467.5;" xml:space="preserve">
<style type="text/css">
	.st0{fill:#4C12A1;}
	.st1{fill:#B43232;}
</style>
<g>
	<path class="st0" d="M418.1,398l-66.9-115.8c26.2-28.4,41.9-66.1,41.9-107.6c0-44.1-17.9-83.7-46.7-112.5
		C317.6,33.3,278,15.4,233.9,15.4s-83.7,17.9-112.5,46.7s-46.7,68.4-46.7,112.5c0,41.5,15.7,79.2,41.9,107.6L49.7,398
		c-1.1,1.9-1.5,4.5-0.7,7.1c1.5,4.1,6,6,10.1,4.5l53.4-21.3l8.2,57.2c0.4,2.2,1.5,4.5,3.7,5.6c3.7,2.2,8.6,0.7,10.8-3l67.6-117
		c9.7,1.9,20.2,3,30.3,3c10.5,0,20.6-1.1,30.3-3l67.6,117c2.2,3.7,7.1,4.9,10.8,3c2.2-1.1,3.4-3.4,3.7-5.6l8.2-57.2l53.4,21.3
		c4.1,1.5,8.6-0.4,10.1-4.5C419.6,402.5,419.2,399.9,418.1,398z M133.7,420.4L127,376c-0.7-4.1-4.5-7.1-9-6.7
		c-0.7,0-1.5,0.4-2.2,0.7l-41.5,16.4l53.8-93c16.8,14.9,37,26.5,59.4,33.3L133.7,420.4z M233.9,318.1c-39.6,0-75.5-16.1-101.3-41.9
		c-25.8-25.8-41.9-61.7-41.9-101.3s16.1-75.5,41.9-101.3c25.8-26.5,61.7-42.6,101.3-42.6s75.5,16.1,101.3,41.9
		c25.8,25.8,41.9,61.7,41.9,101.3s-16.1,75.5-41.9,101.3C309.4,302,273.5,318.1,233.9,318.1z M352,370c-0.7-0.4-1.5-0.7-2.2-0.7
		c-4.1-0.7-8.2,2.2-9,6.7l-6.7,44.5l-53.8-93.8c22.4-6.7,42.6-18.3,59.4-33.3l53.8,93L352,370z"/>
</g>
<g>
	<g>
		<path class="st0" d="M307.1,146.9c-1.9-2.6-4.1-4.5-6.7-5.6c-2.6-1.1-5.6-1.9-8.6-1.5h-31l-9.7-30.6c-1.5-4.5-4.9-8.2-8.6-10.5
			c-2.6-1.1-5.2-1.9-8.2-1.9c-3,0-5.6,0.7-8.2,1.9c-4.1,2.2-7.1,5.6-8.6,10.5l-9.7,30.6h-31c-3-0.4-6,0.4-8.6,1.5
			c-2.6,1.1-4.9,3-6.7,5.6c-3,4.1-3.7,8.6-3,13.1s3,8.6,7.1,11.6l26.2,18.7l-10.1,30.6c0,0.4,0,0.7-0.4,0.7
			c-0.7,2.2-0.7,4.9-0.4,7.5c0.4,2.6,1.5,5.2,3.4,7.5c3,4.1,7.1,6.4,11.6,7.1c4.5,0.7,9.3-0.4,13.1-3.4l26.2-19.1l26.2,19.1
			c4.1,3,8.6,3.7,13.1,3.4c4.5-0.7,8.6-3,11.6-7.1c1.9-2.2,2.6-4.9,3.4-7.5c0.4-2.6,0.4-4.9-0.4-7.5c0-0.4,0-0.7-0.4-0.7l-10.1-30.6
			l26.2-18.7c4.1-3,6.4-7.1,7.1-11.6C311.2,155.9,310.1,151,307.1,146.9z M294,158.9l-0.4,0.4l-30.3,22c-2.6,1.9-4.1,5.6-3,8.6
			l11.6,35.5v0.4c0,0.4,0,0.7,0,1.1s0,0.7-0.4,0.7c-0.4,0.4-0.7,0.7-1.5,0.7c-0.4,0-1.1,0-1.5-0.4L238,205.6c-1.5-1.1-3-1.5-4.9-1.5
			c-1.5,0-3.4,0.4-4.9,1.5L197.6,228c-0.4,0.4-1.1,0.4-1.5,0.4c-0.4,0-1.1-0.4-1.5-0.7c-0.4-0.4-0.4-0.7-0.4-0.7c0-0.4,0-0.7,0-1.1
			v-0.4l11.6-35.5c1.1-3.4,0-6.7-3-8.6l-28.8-22l-0.4-0.4c-0.4-0.4-0.7-0.7-0.7-1.1s0-1.1,0.4-1.5c0,0,0-0.4,0.4-0.4
			c0.4-0.4,0.4-0.4,0.7-0.4s0.7-0.4,1.1-0.4s0.7,0,1.1,0h36.6c3.4,0,6.4-2.2,7.5-5.6l11.6-35.9c0-0.4,0.4-1.1,1.1-1.1
			c0.4,0,0.7-0.4,0.7-0.4c0.4,0,0.7,0,0.7,0.4c0.4,0.4,0.7,0.7,1.1,1.1l11.6,35.9c1.1,3,4.1,5.6,7.5,5.6h36.6c0.4,0,0.7,0,1.1,0
			s0.7,0,1.1,0.4c0.4,0,0.4,0.4,0.7,0.4c0,0,0,0.4,0.4,0.4c0.4,0.4,0.4,0.7,0.4,1.5C294.8,158.1,294.4,158.5,294,158.9z"/>
	</g>
</g>
<g>
	<g>
		<path class="st1" d="M321.7,86.8c-22.4-22.4-53.4-36.2-87.8-36.2s-65.4,13.8-87.8,36.2s-36.2,53.4-36.2,87.8s13.8,65.4,36.2,87.8
			s53.4,36.2,87.8,36.2s65.4-13.8,87.8-36.2s36.2-53.4,36.2-87.8C357.9,140.2,344.1,109.2,321.7,86.8z M310.9,251.2
			c-19.8,19.8-47.1,31.8-77,31.8s-57.2-12.3-76.6-31.8c-19.8-19.8-31.8-46.7-31.8-76.6s12.3-57.2,31.8-76.6
			c19.4-19.8,46.7-32.1,76.6-32.1s57.2,12.3,76.6,31.8c19.8,19.8,31.8,46.7,31.8,76.6S330.3,231.7,310.9,251.2z"/>
	</g>
</g>
</svg>
