<?xml version="1.0" encoding="utf-8"?>
<!-- Generator: Adobe Illustrator 25.0.1, SVG Export Plug-In . SVG Version: 6.00 Build 0)  -->
<svg version="1.1" id="Capa_1" xmlns="http://www.w3.org/2000/svg" xmlns:xlink="http://www.w3.org/1999/xlink" x="0px" y="0px"
	 viewBox="0 0 144.9 144.9" style="enable-background:new 0 0 144.9 144.9;" xml:space="preserve">
<style type="text/css">
	.st0{fill:#B43232;}
</style>
<g>
	<path class="st0" d="M144.9,37.7c0-6-2.3-11.6-6.5-15.8c-8.5-8.5-22.3-8.7-31-0.5c-0.2,0.2-0.4,0.3-0.6,0.5L53.2,75.6L38.1,60.5
		c-8.7-8.7-22.9-8.7-31.6,0C2.3,64.7,0,70.3,0,76.3s2.3,11.6,6.5,15.8l30.8,30.8c0,0,0,0,0,0c4.2,4.2,9.8,6.5,15.8,6.5
		c5.2,0,10.2-1.8,14.1-5c0.6-0.5,1.1-0.9,1.6-1.4c0,0,0,0,0.1,0l69.4-69.4c0.1-0.1,0.2-0.2,0.2-0.3
		C142.7,49.1,144.9,43.6,144.9,37.7z M17.1,71.1c2.9-2.9,7.5-2.9,10.4,0l20.4,20.4c0.2,0.2,0.4,0.4,0.6,0.5c1.4,1.1,3.1,1.7,4.7,1.7
		s3.4-0.6,4.7-1.7c0.2-0.2,0.4-0.3,0.6-0.5l58.9-58.9c0,0,0,0,0,0c2.9-2.8,7.5-2.8,10.3,0c1.4,1.4,2.1,3.2,2.1,5.2
		c0,2-0.8,3.8-2.1,5.2c0,0,0,0,0,0l-69.4,69.4c-1.4,1.4-3.2,2.1-5.2,2.1c-2,0-3.8-0.8-5.2-2.1L17.1,81.5c-1.4-1.4-2.1-3.2-2.1-5.2
		S15.8,72.5,17.1,71.1z"/>
</g>
</svg>
