<?xml version="1.0" standalone="no"?>
<!DOCTYPE svg PUBLIC "-//W3C//DTD SVG 20010904//EN"
 "http://www.w3.org/TR/2001/REC-SVG-20010904/DTD/svg10.dtd">
<svg version="1.0" xmlns="http://www.w3.org/2000/svg"
 width="1080.000000pt" height="206.000000pt" viewBox="0 0 1080.000000 206.000000"
 preserveAspectRatio="xMidYMid meet">

<g transform="translate(0.000000,206.000000) scale(0.100000,-0.100000)"
fill="#4C12A1" stroke="none">
<path d="M2113 1909 c-179 -30 -282 -126 -412 -387 -42 -84 -55 -102 -69 -97
-48 18 -273 77 -387 101 -112 24 -154 28 -305 28 -165 1 -179 -1 -247 -25
-207 -76 -371 -259 -434 -485 -29 -101 -31 -267 -5 -364 55 -205 202 -384 389
-474 103 -50 192 -69 317 -69 122 0 201 18 309 70 172 82 348 326 511 708 29
66 53 121 53 122 1 1 42 -10 92 -23 133 -35 277 -50 360 -36 144 24 266 118
332 257 32 68 37 88 41 175 7 155 -37 272 -144 375 -58 57 -170 112 -254 125
-73 11 -75 11 -147 -1z m161 -322 c49 -27 86 -94 86 -151 0 -48 -33 -110 -72
-139 -42 -31 -172 -24 -310 15 l-37 11 23 51 c33 75 103 181 137 211 41 33
117 35 173 2z m-1072 -361 c139 -28 338 -85 338 -96 0 -15 -66 -163 -123 -275
-71 -144 -164 -282 -226 -337 -72 -65 -189 -96 -295 -78 -232 38 -394 257
-356 482 26 151 146 296 273 329 55 14 265 1 389 -25z"/>
<path d="M3120 1081 l0 -441 85 0 85 0 0 175 0 175 63 0 62 0 84 -175 84 -175
99 0 99 0 -97 187 c-90 172 -96 188 -79 197 43 25 99 84 116 121 21 46 25 139
7 197 -17 56 -78 121 -140 148 -48 21 -71 24 -260 28 l-208 4 0 -441z m413
259 c45 -36 54 -114 20 -167 -21 -32 -65 -43 -169 -43 l-94 0 0 115 0 115 109
0 c94 0 112 -3 134 -20z"/>
<path d="M3927 1513 c-4 -3 -7 -201 -7 -440 l0 -433 286 2 286 3 1 73 2 72
-202 0 -203 0 0 110 0 110 173 0 172 0 -2 72 -1 73 -171 3 -171 2 0 100 0 100
203 2 202 3 0 75 0 75 -281 3 c-154 1 -283 -1 -287 -5z"/>
<path d="M4600 1439 l0 -80 113 2 112 2 3 -362 2 -361 80 0 80 0 2 361 3 362
113 -2 112 -2 0 80 0 81 -310 0 -310 0 0 -81z"/>
<path d="M5513 1508 c-10 -13 -313 -847 -313 -861 0 -4 39 -6 87 -5 l87 3 25
78 25 77 156 0 156 0 25 -77 25 -78 87 -3 c48 -1 87 1 87 5 0 4 -71 202 -158
438 l-157 430 -61 3 c-41 2 -64 -1 -71 -10z m123 -400 c26 -79 49 -149 52
-155 3 -10 -22 -13 -106 -13 l-111 0 50 143 c27 78 52 148 54 155 2 6 6 12 9
12 2 0 26 -64 52 -142z"/>
<path d="M6074 1506 c-3 -8 -4 -205 -2 -438 l3 -423 83 -3 82 -3 0 441 0 440
-80 0 c-60 0 -82 -4 -86 -14z"/>
<path d="M6450 1080 l0 -440 280 0 280 0 0 75 0 75 -197 2 -198 3 0 360 0 360
-82 3 -83 3 0 -441z"/>
<path d="M7155 1508 c-3 -7 -4 -204 -3 -438 l3 -425 82 -3 83 -3 2 253 3 253
83 -162 82 -163 58 0 57 0 80 160 c44 88 83 160 88 160 4 0 7 -111 7 -247 l-1
-248 80 -3 81 -3 0 441 0 441 -82 -3 -82 -3 -110 -232 c-61 -128 -113 -233
-116 -233 -3 0 -56 105 -117 233 l-111 232 -81 3 c-59 2 -83 -1 -86 -10z"/>
<path d="M8365 1503 c-34 -87 -305 -844 -305 -852 0 -7 30 -11 84 -11 l84 0
27 80 27 80 155 -2 156 -3 26 -75 26 -75 88 -3 c48 -1 87 -1 87 0 0 2 -71 199
-159 438 l-159 435 -65 3 c-54 2 -66 0 -72 -15z m132 -408 l51 -155 -110 0
c-60 0 -108 4 -106 9 2 5 26 75 53 155 28 80 52 146 55 146 3 0 29 -70 57
-155z"/>
<path d="M8794 1507 c-3 -8 -4 -43 -2 -78 l3 -64 113 -3 112 -3 0 -359 0 -360
85 0 85 0 0 360 0 359 113 3 112 3 0 75 0 75 -308 3 c-253 2 -308 0 -313 -11z"/>
<path d="M9560 1080 l0 -441 83 3 82 3 0 435 0 435 -82 3 -83 3 0 -441z"/>
<path d="M9860 1512 c0 -5 56 -101 124 -215 l123 -207 -133 -220 c-74 -121
-134 -223 -134 -225 0 -3 42 -5 94 -5 l95 0 82 150 c45 83 85 150 88 150 3 0
42 -67 87 -148 l81 -147 96 -3 c53 -1 97 0 97 2 0 3 -15 29 -34 58 -18 29 -79
129 -135 221 l-101 168 125 209 c69 114 125 211 125 214 0 3 -42 6 -93 6 l-93
0 -75 -140 c-41 -77 -76 -140 -79 -140 -3 0 -39 62 -80 138 l-75 137 -92 3
c-51 1 -93 -1 -93 -6z"/>
</g>
</svg>
