<?xml version="1.0" encoding="utf-8"?>
<!-- Generator: Adobe Illustrator 25.0.1, SVG Export Plug-In . SVG Version: 6.00 Build 0)  -->
<svg version="1.1" id="Capa_1" xmlns="http://www.w3.org/2000/svg" xmlns:xlink="http://www.w3.org/1999/xlink" x="0px" y="0px"
	 viewBox="0 0 512 512" style="enable-background:new 0 0 512 512;" xml:space="preserve">
<style type="text/css">
	.st0{fill:#4C12A1;}
	.st1{fill:#B43232;}
</style>
<path class="st0" d="M0,466c0,5.5,4.5,10,10,10h492c5.5,0,10-4.5,10-10V46c0-5.5-4.5-10-10-10H10C4.5,36,0,40.5,0,46V466z M492,56
	v40H301c-5.5,0-10,4.5-10,10s4.5,10,10,10h191v340H20V116h191c5.5,0,10-4.5,10-10s-4.5-10-10-10H20V56H492z"/>
<path class="st1" d="M251.1,346.4l90.1,52c1.5,0.9,3.3,1.3,5,1.3c1.7,0,3.5-0.5,5-1.4l89.8-52.1c0,0,0,0,0,0
	c2.9-1.7,4.9-4.9,4.9-8.5c0,0,0-0.1,0-0.1V233.5c0-3.6-1.9-6.8-5-8.6l-90-52.5c-3.1-1.8-7-1.8-10.1,0l-90,52.5c-3.1,1.8-5,5.1-5,8.6
	v104.2C246,341.3,248.1,344.7,251.1,346.4L251.1,346.4z M346.2,378.2L276,337.7l70.2-40.5l69.9,40.5L346.2,378.2z M426,320.3
	l-70-40.6v-81.3l70,40.8V320.3z M336,198.4v81.5l-70,40.4v-81.1L336,198.4z"/>
<path class="st1" d="M76,206h60c5.5,0,10-4.5,10-10s-4.5-10-10-10H76c-5.5,0-10,4.5-10,10S70.5,206,76,206z"/>
<path class="st1" d="M196,246H76c-5.5,0-10,4.5-10,10s4.5,10,10,10h120c5.5,0,10-4.5,10-10S201.5,246,196,246z"/>
<path class="st1" d="M196,306H76c-5.5,0-10,4.5-10,10s4.5,10,10,10h120c5.5,0,10-4.5,10-10S201.5,306,196,306z"/>
<path class="st1" d="M196,366H76c-5.5,0-10,4.5-10,10s4.5,10,10,10h120c5.5,0,10-4.5,10-10S201.5,366,196,366z"/>
<circle class="st0" cx="256" cy="106" r="10"/>
</svg>
