<svg width="116" height="116" viewBox="0 0 116 116" fill="none" xmlns="http://www.w3.org/2000/svg">
<g filter="url(#filter0_d_408_1725)">
<rect x="20" y="16" width="76" height="76" rx="38" fill="white"/>
</g>
<g clip-path="url(#clip0_408_1725)">
<path d="M74.412 40.2252H75.7406C76.2041 40.2252 76.5799 39.8493 76.5799 39.3859C76.5799 38.9224 76.2041 38.5466 75.7406 38.5466H72.5513C72.0878 38.5466 71.712 38.9224 71.712 39.3859V42.5752C71.712 43.0386 72.0878 43.4145 72.5513 43.4145C73.0148 43.4145 73.3906 43.0386 73.3906 42.5752V41.6517C75.9372 45.061 77.3214 49.1976 77.3214 53.5C77.3214 64.4296 68.4296 73.3214 57.5 73.3214C46.5704 73.3214 37.6786 64.4296 37.6786 53.5C37.6786 42.5704 46.5704 33.6786 57.5 33.6786C58.3083 33.6786 59.1219 33.7277 59.9182 33.8245C60.3777 33.88 60.7967 33.5528 60.8526 33.0926C60.9086 32.6325 60.581 32.214 60.1208 32.1581C59.2575 32.0532 58.3758 32 57.5 32C51.7571 32 46.358 34.2364 42.2972 38.2972C38.2364 42.358 36 47.7571 36 53.5C36 59.2429 38.2364 64.642 42.2972 68.7028C46.358 72.7636 51.7571 75 57.5 75C63.2429 75 68.642 72.7636 72.7028 68.7028C76.7636 64.642 79 59.2429 79 53.5C79 48.6538 77.381 44.0015 74.412 40.2252Z" fill="#4C12A1"/>
<path d="M45.1043 44.6746C44.7126 44.4267 44.1942 44.5434 43.9462 44.9348C42.0301 47.961 41.1819 51.6003 41.5579 55.1825C41.9393 58.8178 43.5755 62.246 46.1651 64.8356C49.2902 67.9607 53.3952 69.5233 57.5004 69.5233C61.6055 69.5233 65.7105 67.9608 68.8357 64.8356C75.086 58.5853 75.086 48.4153 68.8357 42.1651C66.2501 39.5795 62.8276 37.9439 59.1983 37.5595C55.6227 37.1806 51.9873 38.0222 48.9624 39.9288C48.5702 40.1759 48.4528 40.6942 48.6999 41.0863C48.9471 41.4785 49.4653 41.5959 49.8575 41.3489C55.5594 37.755 62.8753 38.5786 67.6487 43.352C73.2445 48.9478 73.2445 58.0528 67.6487 63.6486C62.053 69.2445 52.9478 69.2445 47.3521 63.6486C42.6447 58.9412 41.8087 51.4486 45.3645 45.8329C45.6123 45.4412 45.4959 44.9227 45.1043 44.6746Z" fill="#4C12A1"/>
<path d="M68.4106 54.3529H69.4456C69.9091 54.3529 70.2849 53.9771 70.2849 53.5136C70.2849 53.0502 69.9091 52.6743 69.4456 52.6743H68.4106C67.9471 52.6743 67.5713 53.0502 67.5713 53.5136C67.5713 53.9771 67.947 54.3529 68.4106 54.3529Z" fill="#4C12A1"/>
<path d="M44.7148 53.4863C44.7148 53.9497 45.0907 54.3256 45.5541 54.3256H46.5892C47.0526 54.3256 47.4284 53.9497 47.4284 53.4863C47.4284 53.0228 47.0526 52.647 46.5892 52.647H45.5541C45.0907 52.647 44.7148 53.0227 44.7148 53.4863Z" fill="#4C12A1"/>
<path d="M58.3524 42.5892V41.5541C58.3524 41.0907 57.9766 40.7148 57.5131 40.7148C57.0497 40.7148 56.6738 41.0907 56.6738 41.5541V42.5892C56.6738 43.0526 57.0497 43.4284 57.5131 43.4284C57.9766 43.4284 58.3524 43.0526 58.3524 42.5892Z" fill="#4C12A1"/>
<path d="M56.6475 64.4111V65.4461C56.6475 65.9095 57.0233 66.2854 57.4868 66.2854C57.9502 66.2854 58.326 65.9095 58.326 65.4461V64.4111C58.326 63.9476 57.9502 63.5718 57.4868 63.5718C57.0233 63.5718 56.6475 63.9475 56.6475 64.4111Z" fill="#4C12A1"/>
<path d="M53.2932 48.106C52.9653 47.7783 52.4341 47.7783 52.1062 48.106C51.7784 48.4337 51.7784 48.9652 52.1062 49.293L54.9506 52.1374C54.7326 52.5436 54.6087 53.0075 54.6087 53.4999C54.6087 55.0942 55.9057 56.3912 57.5 56.3912C59.0944 56.3912 60.3914 55.0942 60.3914 53.4999C60.3914 53.0075 60.2674 52.5436 60.0495 52.1374L65.7888 46.3981C66.1166 46.0703 66.1166 45.5389 65.7888 45.2111C65.461 44.8834 64.9297 44.8834 64.6018 45.2111L58.8625 50.9504C58.4562 50.7325 57.9924 50.6085 57.5 50.6085C57.0077 50.6085 56.5438 50.7325 56.1376 50.9504L53.2932 48.106ZM58.7128 53.4999C58.7128 54.1686 58.1688 54.7126 57.5 54.7126C56.8313 54.7126 56.2873 54.1686 56.2873 53.4999C56.2873 52.8311 56.8313 52.2871 57.5 52.2871C58.1688 52.2871 58.7128 52.8311 58.7128 53.4999Z" fill="#4C12A1"/>
<path d="M47.3516 43.3511C47.5086 43.195 47.5983 42.9785 47.5983 42.7577C47.5983 42.537 47.5086 42.3213 47.3516 42.1644C47.1955 42.0083 46.9797 41.9185 46.7582 41.9185C46.5375 41.9185 46.321 42.0083 46.1649 42.1644C46.0088 42.3205 45.9189 42.537 45.9189 42.7577C45.9189 42.9793 46.0087 43.195 46.1649 43.3511C46.321 43.5072 46.5375 43.597 46.7582 43.597C46.9797 43.597 47.1955 43.5072 47.3516 43.3511Z" fill="#4C12A1"/>
<path d="M63.3139 34.5077C63.5356 34.5077 63.7521 34.4186 63.9081 34.2618C64.0642 34.1057 64.1541 33.8899 64.1541 33.6684C64.1541 33.4477 64.0643 33.2311 63.9081 33.075C63.7521 32.919 63.5356 32.8291 63.3139 32.8291C63.0932 32.8291 62.8766 32.9189 62.7206 33.075C62.5645 33.2311 62.4746 33.4477 62.4746 33.6684C62.4746 33.89 62.5644 34.1057 62.7206 34.2618C62.8766 34.4186 63.0932 34.5077 63.3139 34.5077Z" fill="#4C12A1"/>
</g>
<defs>
<filter id="filter0_d_408_1725" x="0" y="0" width="116" height="116" filterUnits="userSpaceOnUse" color-interpolation-filters="sRGB">
<feFlood flood-opacity="0" result="BackgroundImageFix"/>
<feColorMatrix in="SourceAlpha" type="matrix" values="0 0 0 0 0 0 0 0 0 0 0 0 0 0 0 0 0 0 127 0" result="hardAlpha"/>
<feOffset dy="4"/>
<feGaussianBlur stdDeviation="10"/>
<feComposite in2="hardAlpha" operator="out"/>
<feColorMatrix type="matrix" values="0 0 0 0 0 0 0 0 0 0 0 0 0 0 0 0 0 0 0.1 0"/>
<feBlend mode="normal" in2="BackgroundImageFix" result="effect1_dropShadow_408_1725"/>
<feBlend mode="normal" in="SourceGraphic" in2="effect1_dropShadow_408_1725" result="shape"/>
</filter>
<clipPath id="clip0_408_1725">
<rect width="43" height="43" fill="white" transform="translate(36 32)"/>
</clipPath>
</defs>
</svg>
