<svg width="116" height="116" viewBox="0 0 116 116" fill="none" xmlns="http://www.w3.org/2000/svg">
<g filter="url(#filter0_d_34_1743)">
<rect x="20" y="16" width="76" height="76" rx="38" fill="white"/>
</g>
<g clip-path="url(#clip0_34_1743)">
<path d="M76.9026 38.9432C70.5735 37.209 64.2073 34.5088 58.4921 31.1344C58.1885 30.9552 57.8118 30.9552 57.5083 31.1344C51.6282 34.6057 45.606 37.1599 39.0973 38.9432C38.6768 39.0583 38.3854 39.4405 38.3854 39.8765V49.7634C38.3854 59.9447 43.0823 66.6841 47.0227 70.5448C51.2647 74.7014 56.2061 77 58.0002 77C59.7941 77 64.7355 74.7014 68.9776 70.5448C72.9178 66.6842 77.6145 59.9448 77.6145 49.7634V39.8764C77.6145 39.4405 77.323 39.0583 76.9026 38.9432ZM75.6793 49.7633C75.6793 59.2726 71.2984 65.5612 67.6231 69.1623C63.4516 73.2498 58.9914 75.0646 58.0002 75.0646C57.009 75.0646 52.5486 73.2498 48.377 69.1623C44.7017 65.5611 40.3207 59.2726 40.3207 49.7633V40.6109C46.5449 38.8437 52.3414 36.3774 58.0004 33.0889C63.518 36.2902 69.6038 38.8791 75.6793 40.6106V49.7633Z" fill="#4C12A1"/>
<path d="M49.4233 40.5029C49.2274 40.0056 48.6656 39.7613 48.1682 39.9573C46.4396 40.6384 44.6654 41.2653 42.8948 41.8207C42.4914 41.9474 42.2168 42.3212 42.2168 42.744V46.4807C42.2168 47.0151 42.6501 47.4483 43.1844 47.4483C43.7187 47.4483 44.152 47.0151 44.152 46.4807V43.4511C45.7404 42.9372 47.327 42.3688 48.8776 41.7578C49.3749 41.562 49.6192 41.0002 49.4233 40.5029Z" fill="#4C12A1"/>
<path d="M51.2613 40.6864C51.3912 40.6864 51.523 40.6602 51.6494 40.6051L51.6672 40.5973C52.1567 40.3828 52.3772 39.8129 52.1626 39.3235C51.9479 38.834 51.3748 38.6125 50.8858 38.8269L50.8702 38.8336C50.3803 39.0475 50.1591 39.617 50.373 40.1066C50.5318 40.4701 50.888 40.6864 51.2613 40.6864Z" fill="#4C12A1"/>
<path d="M69.5289 62.2011C69.0817 61.9089 68.4821 62.0346 68.1895 62.4819C67.3921 63.7023 66.4567 64.871 65.4087 65.9552C64.547 66.8466 63.6131 67.6775 62.6332 68.4245C62.2083 68.7485 62.1266 69.3556 62.4504 69.7807C62.641 70.0304 62.9291 70.1617 63.2206 70.1617C63.4253 70.1617 63.6314 70.0971 63.8066 69.9634C64.8637 69.1575 65.8708 68.2614 66.8 67.3003C67.933 66.1284 68.9455 64.8634 69.8096 63.5404C70.1021 63.093 69.9762 62.4934 69.5289 62.2011Z" fill="#4C12A1"/>
<path d="M60.386 69.9423L60.3305 69.975C59.868 70.2428 59.71 70.8347 59.9777 71.2971C60.1572 71.6071 60.4819 71.7801 60.8161 71.7801C60.9805 71.7801 61.1474 71.7382 61.2999 71.6497L61.3639 71.612C61.8251 71.3419 61.98 70.7492 61.7099 70.2881C61.4397 69.8271 60.8469 69.6725 60.386 69.9423Z" fill="#4C12A1"/>
<path d="M51.4044 52.025C50.8103 51.4308 50.0201 51.1038 49.1797 51.1038C48.3393 51.1038 47.5491 51.4309 46.9546 52.025C45.728 53.2519 45.728 55.2483 46.9546 56.4751L52.6683 62.1886C53.2626 62.7827 54.0528 63.1098 54.8932 63.1098C55.7337 63.1098 56.5239 62.7827 57.1182 62.1884L69.046 50.2606C70.2725 49.0334 70.2725 47.0374 69.0458 45.8109C68.4516 45.2167 67.6614 44.8896 66.8208 44.8896C65.9803 44.8896 65.1901 45.2168 64.5958 45.8109L54.8931 55.5136L51.4044 52.025ZM65.9643 47.1794C66.193 46.9508 66.4973 46.8249 66.8209 46.8249C67.1447 46.8249 67.4487 46.9508 67.6776 47.1794C68.1497 47.6515 68.1497 48.4201 67.6774 48.8924L55.7498 60.82C55.5212 61.0487 55.2169 61.1745 54.8932 61.1745C54.5696 61.1745 54.2653 61.0487 54.0366 60.82L48.3231 55.1067C47.8507 54.6344 47.8507 53.8658 48.3229 53.3937C48.5516 53.1651 48.8559 53.039 49.1796 53.039C49.5033 53.039 49.8075 53.1649 50.0361 53.3935L54.2089 57.5664C54.3905 57.7478 54.6365 57.8498 54.8931 57.8498C55.1498 57.8498 55.3958 57.7479 55.5772 57.5664L65.9643 47.1794Z" fill="#4C12A1"/>
</g>
<defs>
<filter id="filter0_d_34_1743" x="0" y="0" width="116" height="116" filterUnits="userSpaceOnUse" color-interpolation-filters="sRGB">
<feFlood flood-opacity="0" result="BackgroundImageFix"/>
<feColorMatrix in="SourceAlpha" type="matrix" values="0 0 0 0 0 0 0 0 0 0 0 0 0 0 0 0 0 0 127 0" result="hardAlpha"/>
<feOffset dy="4"/>
<feGaussianBlur stdDeviation="10"/>
<feComposite in2="hardAlpha" operator="out"/>
<feColorMatrix type="matrix" values="0 0 0 0 0 0 0 0 0 0 0 0 0 0 0 0 0 0 0.1 0"/>
<feBlend mode="normal" in2="BackgroundImageFix" result="effect1_dropShadow_34_1743"/>
<feBlend mode="normal" in="SourceGraphic" in2="effect1_dropShadow_34_1743" result="shape"/>
</filter>
<clipPath id="clip0_34_1743">
<rect width="46" height="46" fill="white" transform="translate(35 31)"/>
</clipPath>
</defs>
</svg>
