<svg width="116" height="116" viewBox="0 0 116 116" fill="none" xmlns="http://www.w3.org/2000/svg">
<g filter="url(#filter0_d_408_1748)">
<rect x="20" y="16" width="76" height="76" rx="38" fill="white"/>
</g>
<g clip-path="url(#clip0_408_1748)">
<path d="M75.0069 44.157L71.7152 40.8655V35.9558C71.7152 34.8773 70.8379 34 69.7593 34H42.736C41.6711 34 40.8047 34.8664 40.8047 35.9314V68.3325C40.8047 69.3974 41.6711 70.2638 42.736 70.2638H43.8285V71.3401C43.8285 72.405 44.6949 73.2715 45.7599 73.2715H49.9496C50.3056 73.2715 50.5942 72.983 50.5942 72.6269C50.5942 72.2709 50.3056 71.9824 49.9496 71.9824H45.7599C45.4057 71.9824 45.1175 71.6942 45.1175 71.3401V45.4262C45.1175 45.0701 44.829 44.7816 44.473 44.7816C44.1171 44.7816 43.8285 45.0701 43.8285 45.4262V68.9748H42.736C42.3819 68.9748 42.0937 68.6866 42.0937 68.3325V35.9314C42.0937 35.5772 42.3819 35.2891 42.736 35.2891H69.7594C70.1271 35.2891 70.4262 35.5881 70.4262 35.9558V39.5765L68.046 37.1964C67.9251 37.0756 67.7612 37.0077 67.5903 37.0077H45.7599C44.6949 37.0077 43.8285 37.8741 43.8285 38.9391V42.4258C43.8285 42.7819 44.1171 43.0704 44.473 43.0704C44.829 43.0704 45.1175 42.7819 45.1175 42.4258V38.939C45.1175 38.5849 45.4057 38.2967 45.7599 38.2967H66.9457V44.6116C66.9457 44.9675 67.2342 45.256 67.5901 45.2561L73.9066 45.2571V71.34C73.9066 71.6942 73.6185 71.9823 73.2643 71.9823H69.1247C68.7687 71.9823 68.4802 72.2708 68.4802 72.6268C68.4802 72.9829 68.7687 73.2714 69.1247 73.2714H73.2643C74.3292 73.2714 75.1957 72.4049 75.1957 71.34V44.6128C75.1957 44.4418 75.1278 44.278 75.0069 44.157ZM68.2347 43.9671V39.2082L72.9948 43.968L68.2347 43.9671Z" fill="#4C12A1"/>
<path d="M67.2374 49.0781H51.8184C51.4624 49.0781 51.1738 49.3666 51.1738 49.7227C51.1738 50.0787 51.4624 50.3672 51.8184 50.3672H67.2374C67.5934 50.3672 67.882 50.0787 67.882 49.7227C67.882 49.3666 67.5934 49.0781 67.2374 49.0781Z" fill="#4C12A1"/>
<path d="M67.2374 52.8794H51.8184C51.4624 52.8794 51.1738 53.1679 51.1738 53.5239C51.1738 53.88 51.4624 54.1685 51.8184 54.1685H67.2374C67.5934 54.1685 67.882 53.88 67.882 53.5239C67.882 53.1679 67.5934 52.8794 67.2374 52.8794Z" fill="#4C12A1"/>
<path d="M67.2376 56.7563H64.1914C63.8355 56.7563 63.5469 57.0448 63.5469 57.4009C63.5469 57.7569 63.8355 58.0454 64.1914 58.0454H67.2376C67.5936 58.0454 67.8822 57.7569 67.8822 57.4009C67.8822 57.0448 67.5936 56.7563 67.2376 56.7563Z" fill="#4C12A1"/>
<path d="M61.1579 58.0454C61.5138 58.0454 61.8024 57.7569 61.8024 57.4009C61.8024 57.0448 61.5138 56.7563 61.1579 56.7563H51.8184C51.4624 56.7563 51.1738 57.0448 51.1738 57.4009C51.1738 57.7569 51.4624 58.0454 51.8184 58.0454H61.1579Z" fill="#4C12A1"/>
<path d="M61.8912 69.2859L60.173 67.5677V73.7987C60.173 74.1547 59.8844 74.4432 59.5284 74.4432C59.1725 74.4432 58.8839 74.1547 58.8839 73.7987V67.5677L57.1657 69.2859C56.914 69.5375 56.5058 69.5376 56.2542 69.2858C56.0025 69.0341 56.0025 68.6259 56.2542 68.3743L59.0727 65.5559C59.1985 65.4301 59.3635 65.3672 59.5284 65.3672C59.6933 65.3672 59.8583 65.4301 59.9842 65.5559L62.8026 68.3743C63.0544 68.626 63.0544 69.0341 62.8026 69.2858C62.551 69.5375 62.1429 69.5374 61.8912 69.2859Z" fill="#4C12A1"/>
<path d="M59.5278 61.8101C55.0642 61.8101 51.4326 65.4414 51.4326 69.9049C51.4326 74.3684 55.0642 77.9997 59.5278 77.9997C63.9915 77.9997 67.6231 74.3684 67.6231 69.9049C67.6231 65.4414 63.9915 61.8101 59.5278 61.8101ZM59.5278 76.7108C55.775 76.7108 52.7217 73.6577 52.7217 69.905C52.7217 66.1523 55.775 63.0992 59.5278 63.0992C63.2807 63.0992 66.334 66.1523 66.334 69.905C66.334 73.6577 63.2807 76.7108 59.5278 76.7108Z" fill="#4C12A1"/>
</g>
<defs>
<filter id="filter0_d_408_1748" x="0" y="0" width="116" height="116" filterUnits="userSpaceOnUse" color-interpolation-filters="sRGB">
<feFlood flood-opacity="0" result="BackgroundImageFix"/>
<feColorMatrix in="SourceAlpha" type="matrix" values="0 0 0 0 0 0 0 0 0 0 0 0 0 0 0 0 0 0 127 0" result="hardAlpha"/>
<feOffset dy="4"/>
<feGaussianBlur stdDeviation="10"/>
<feComposite in2="hardAlpha" operator="out"/>
<feColorMatrix type="matrix" values="0 0 0 0 0 0 0 0 0 0 0 0 0 0 0 0 0 0 0.1 0"/>
<feBlend mode="normal" in2="BackgroundImageFix" result="effect1_dropShadow_408_1748"/>
<feBlend mode="normal" in="SourceGraphic" in2="effect1_dropShadow_408_1748" result="shape"/>
</filter>
<clipPath id="clip0_408_1748">
<rect width="44" height="44" fill="white" transform="translate(36 34)"/>
</clipPath>
</defs>
</svg>
